<svg width="263" height="40" viewBox="0 0 263 40" fill="none" xmlns="http://www.w3.org/2000/svg">
<g clip-path="url(#clip0_102_31)">
<path d="M165.343 11.7918C165.638 11.7918 165.926 11.869 166.216 12.0165C166.501 12.1641 166.722 12.3802 166.878 12.6565C167.044 12.9309 167.118 13.2192 167.122 13.5177C167.122 13.8179 167.044 14.1027 166.888 14.3772C166.73 14.6534 166.509 14.8661 166.233 15.0205C165.945 15.1715 165.653 15.2487 165.348 15.2487C165.032 15.2487 164.74 15.1749 164.457 15.0222C164.174 14.8696 163.956 14.6585 163.799 14.384C163.637 14.1113 163.558 13.8213 163.558 13.5228C163.558 13.2243 163.637 12.9361 163.797 12.6582C163.956 12.3802 164.176 12.1675 164.462 12.0165C164.749 11.869 165.037 11.7901 165.344 11.7901L165.343 11.7918ZM165.343 12.0834C165.084 12.0834 164.847 12.1452 164.608 12.2722C164.375 12.3957 164.193 12.5758 164.052 12.8057C163.922 13.039 163.857 13.2792 163.857 13.528C163.857 13.7767 163.922 14.0152 164.051 14.2434C164.186 14.475 164.368 14.6465 164.607 14.7769C164.843 14.9022 165.085 14.9691 165.349 14.9691C165.603 14.9691 165.849 14.9021 166.08 14.7752C166.319 14.6482 166.502 14.4715 166.631 14.2417C166.761 14.0152 166.825 13.7733 166.825 13.5245C166.825 13.2758 166.76 13.0356 166.626 12.8023C166.495 12.5724 166.308 12.3957 166.073 12.2722C165.833 12.1486 165.59 12.0869 165.346 12.0869L165.343 12.0834ZM164.56 14.4818L164.553 12.6221H165.214C165.44 12.6204 165.605 12.6376 165.706 12.6719C165.807 12.7062 165.888 12.7663 165.95 12.852C166.006 12.9395 166.039 13.027 166.039 13.1317C166.039 13.2638 165.989 13.3839 165.888 13.4868C165.787 13.588 165.651 13.6412 165.488 13.6584C165.554 13.6824 165.607 13.7167 165.65 13.7544C165.727 13.8265 165.821 13.9483 165.936 14.1216L166.169 14.4784H165.787L165.615 14.1885C165.476 13.962 165.373 13.8248 165.295 13.7596C165.238 13.7201 165.157 13.6978 165.049 13.6978H164.866V14.4853H164.56V14.4818ZM164.866 13.4405L165.24 13.4353C165.421 13.4353 165.545 13.4096 165.614 13.3581C165.681 13.3084 165.711 13.238 165.711 13.1523C165.711 13.0939 165.696 13.0442 165.667 13.0047C165.631 12.9584 165.591 12.9292 165.535 12.9052C165.475 12.8846 165.37 12.876 165.222 12.876H164.864L164.869 13.4388L164.866 13.4405Z" fill="white"/>
<path d="M0.0428895 28.2219L0 6.01201L3.91667 6.00343L3.90638 11.8741L17.9913 11.845C20.7105 11.8398 24.5242 13.54 24.5311 18.2664L24.5654 21.6821C24.574 26.412 20.7654 28.179 18.0428 28.1842L0.0428895 28.2202V28.2219ZM18.0205 15.7822L3.93554 15.8114L3.94927 24.2538L18.0359 24.2263C19.6811 24.2195 20.6573 23.2999 20.6539 21.7302L20.647 18.263C20.647 16.6692 19.6606 15.7771 18.0187 15.7822H18.0205Z" fill="white"/>
<path d="M82.6637 21.7765L82.6345 6.00686L86.6816 6C86.6816 6 86.6576 8.07242 86.6644 11.8158L103.421 11.8381V15.7582L86.6713 15.7908C86.6747 16.6212 86.6816 21.8931 86.6816 21.9223C86.7468 23.396 87.7006 24.2555 89.279 24.2486L103.443 24.2521V28.2202L89.3476 28.2133C88.591 28.2133 87.7984 28.0915 87.0075 27.817C85.6196 27.3607 82.6705 25.8613 82.6637 21.7748V21.7765Z" fill="white"/>
<path d="M111.283 21.8382C111.285 23.3737 112.345 24.2641 113.925 24.2606L127.06 24.2315L127.065 28.1499L113.93 28.1807C111.309 28.1876 107.385 26.5046 107.373 21.8365L107.367 18.1858C107.358 13.5211 111.247 11.8244 113.899 11.8192L125.636 11.7935C128.255 11.7901 132.184 13.4405 132.189 17.9816L132.198 21.5363L111.28 21.5809L111.285 21.84L111.283 21.8382ZM125.716 15.681L113.937 15.7085C112.326 15.7102 111.268 16.6349 111.273 18.1652V18.3282L128.285 18.2921V18.1326C128.278 16.5971 127.331 15.6759 125.716 15.681Z" fill="white"/>
<path d="M49.2267 24.2984L49.2472 15.7599L35.0422 15.7874C33.397 15.7943 32.4208 16.7138 32.4243 18.2836L32.4311 21.7507C32.4311 23.3445 33.4176 24.3327 35.0594 24.3258L48.9058 24.2967L48.9127 28.2133L35.0628 28.2185C32.3436 28.2236 28.5247 26.4823 28.5179 21.7559L28.5076 18.287C28.499 13.5571 32.3127 11.8313 35.0337 11.8261L53.1656 11.7901L53.1982 28.2065L49.2284 24.295L49.2267 24.2984Z" fill="white"/>
<path d="M64.0546 22.4782L56.4546 11.7918L61.3663 11.8038L68.98 22.4816C68.98 22.5056 64.0546 22.4782 64.0546 22.4782Z" fill="#E76836"/>
<path d="M76.3709 11.8038L81.2826 11.7918L65.4855 34L60.5344 33.9949L76.3709 11.8021V11.8038Z" fill="white"/>
<path d="M160.906 11.7918L160.949 34L157.024 30.0696L157.019 28.191L142.802 28.2202C140.082 28.2254 136.128 26.484 136.121 21.7576L136.111 18.2887C136.102 13.5589 140.051 11.833 142.774 11.8278L160.906 11.7918ZM142.798 24.3001L157.015 24.2709L157.001 15.7016L142.783 15.681C141.137 15.6879 140.161 16.6074 140.165 18.1772L140.172 21.8194C140.172 23.4132 141.158 24.3053 142.8 24.3001H142.798Z" fill="white"/>
</g>
<g clip-path="url(#clip1_102_31)">
<path d="M191.32 38.7805L191.94 38.2607C192.43 38.9104 193.01 39.2603 193.819 39.2603C194.819 39.2603 195.359 38.7405 195.359 37.9409C195.359 37.2811 194.989 36.9513 194.069 36.7414L193.499 36.6114C192.23 36.3215 191.53 35.7618 191.53 34.6922C191.53 33.4527 192.47 32.783 193.839 32.783C194.889 32.783 195.629 33.1828 196.148 33.9225L195.519 34.3823C195.139 33.8526 194.609 33.5227 193.799 33.5227C192.91 33.5227 192.36 33.9125 192.36 34.6622C192.36 35.3219 192.79 35.6218 193.669 35.8217L194.239 35.9517C195.599 36.2616 196.188 36.8613 196.188 37.9009C196.188 39.1803 195.289 40 193.789 40C192.67 40 191.88 39.5402 191.32 38.7805ZM197.468 33.0629V32.9329C197.468 32.6631 197.618 32.4831 197.958 32.4831C198.297 32.4831 198.447 32.6631 198.447 32.9329V33.0629C198.447 33.3328 198.297 33.5127 197.958 33.5127C197.618 33.5127 197.468 33.3328 197.468 33.0629ZM197.558 34.7222H198.357V39.88H197.558V34.7222ZM200.906 39.88C200.357 39.88 200.057 39.5302 200.057 39.0504V32.4831H200.856V39.1803H201.616V39.88H200.906ZM203.815 39.88L202.006 34.7222H202.806L203.705 37.2811L204.265 39.0404H204.315L204.875 37.2811L205.794 34.7222H206.564L204.745 39.88H203.815ZM207.134 37.3011C207.134 35.6618 208.053 34.6022 209.453 34.6022C210.852 34.6022 211.682 35.6618 211.682 37.1212V37.501H207.973V37.7409C207.973 38.6306 208.543 39.3003 209.503 39.3003C210.152 39.3003 210.652 38.9804 210.922 38.4107L211.492 38.8205C211.162 39.5202 210.422 40 209.453 40C208.053 40 207.134 38.9404 207.134 37.3011ZM207.973 36.8313V36.9013H210.822V36.7913C210.822 35.8817 210.272 35.272 209.453 35.272C208.583 35.272 207.973 35.9317 207.973 36.8313ZM213.001 39.88V34.7222H213.801V35.6718H213.851C214.031 35.182 214.501 34.7222 215.34 34.7222H215.65V35.5219H215.18C214.321 35.5219 213.801 35.8917 213.801 36.3815V39.88H213.001ZM218.709 39.88V32.903H221.488C222.737 32.903 223.437 33.6726 223.437 34.9021C223.437 36.1316 222.737 36.9013 221.488 36.9013H219.549V39.88H218.709ZM219.549 36.1616H221.488C222.147 36.1616 222.537 35.8017 222.537 35.162V34.6422C222.537 34.0025 222.147 33.6426 221.488 33.6426H219.549V36.1616ZM228.335 39.88C227.745 39.88 227.505 39.5202 227.445 39.0404H227.395C227.175 39.6701 226.626 40 225.906 40C224.816 40 224.177 39.4002 224.177 38.4406C224.177 37.481 224.876 36.9313 226.376 36.9313H227.395V36.4215C227.395 35.6918 226.995 35.292 226.176 35.292C225.556 35.292 225.146 35.5918 224.866 36.0616L224.387 35.6118C224.666 35.0621 225.286 34.6022 226.216 34.6022C227.455 34.6022 228.195 35.252 228.195 36.3415V39.1803H228.785V39.88H228.335ZM227.395 38.3807V37.531H226.336C225.426 37.531 225.016 37.8109 225.016 38.3107V38.5206C225.016 39.0304 225.416 39.3203 226.036 39.3203C226.826 39.3203 227.395 38.9105 227.395 38.3807ZM229.924 39.88V34.7222H230.724V35.6718H230.774C230.954 35.182 231.424 34.7222 232.263 34.7222H232.573V35.5219H232.103C231.244 35.5219 230.724 35.8917 230.724 36.3815V39.88H229.924ZM234.772 39.88C234.222 39.88 233.923 39.5302 233.923 39.0304V35.4219H233.073V34.7222H233.553C233.893 34.7222 234.003 34.6022 234.003 34.2524V33.2928H234.722V34.7222H235.852V35.4219H234.722V39.1803H235.772V39.88H234.772ZM237.141 39.88V34.7222H237.941V35.5618H237.981C238.231 34.9821 238.671 34.6022 239.44 34.6022C240.5 34.6022 241.17 35.3219 241.17 36.5714V39.88H240.37V36.7114C240.37 35.7917 239.97 35.3219 239.2 35.3219C238.561 35.3219 237.941 35.6418 237.941 36.3015V39.88H237.141ZM242.439 37.3011C242.439 35.6618 243.359 34.6022 244.758 34.6022C246.157 34.6022 246.987 35.6618 246.987 37.1212V37.501H243.279V37.7409C243.279 38.6306 243.848 39.3003 244.808 39.3003C245.458 39.3003 245.958 38.9804 246.227 38.4107L246.797 38.8205C246.467 39.5202 245.728 40 244.758 40C243.359 40 242.439 38.9404 242.439 37.3011ZM243.279 36.8313V36.9013H246.127V36.7913C246.127 35.8817 245.578 35.272 244.758 35.272C243.888 35.272 243.279 35.9317 243.279 36.8313ZM248.307 39.88V34.7222H249.106V35.6718H249.156C249.336 35.182 249.806 34.7222 250.646 34.7222H250.955V35.5219H250.486C249.626 35.5219 249.106 35.8917 249.106 36.3815V39.88H248.307Z" fill="white"/>
<path d="M191.53 24.4898H204.358V26.3224H191.53V24.4898ZM191.53 22.8238H204.358V20.9913H191.53V22.8238ZM195.195 19.3253H200.693V17.4927H195.195V19.3253ZM195.195 15.8267H200.693V13.9942H195.195V15.8267ZM195.195 12.3282H200.693V10.4956H195.195V12.3282ZM200.693 6.99708H195.195V8.82965H200.693V6.99708ZM191.53 5.33111H204.358V3.49854H191.53V5.33111ZM191.53 1.83257H204.358V0H191.53V1.83257ZM206.191 22.8238H225.744C226.073 22.2574 226.322 21.6426 226.482 20.9913H206.192V22.8238H206.191ZM224.213 13.9942H209.856V15.8267H225.743C225.34 15.132 224.823 14.5123 224.213 13.9942ZM209.856 10.4956V12.3282H224.213C224.821 11.8101 225.34 11.1903 225.743 10.4956H209.856ZM225.744 3.49854H206.191V5.33111H226.481C226.321 4.67972 226.071 4.06497 225.743 3.49854H225.744ZM219.685 0H206.191V1.83257H224.405C223.16 0.694711 221.504 0 219.685 0ZM209.856 8.82965H215.354V6.99708H209.856V8.82965ZM220.518 8.82965H226.437C226.596 8.2449 226.682 7.63182 226.682 6.99708H220.518V8.82965ZM209.856 19.3253H215.354V17.4927H209.856V19.3253ZM220.518 17.4927V19.3253H226.682C226.682 18.6905 226.596 18.0775 226.437 17.4927H220.518ZM206.191 26.3224H219.685C221.518 26.3224 223.16 25.6277 224.405 24.4898H206.191V26.3224ZM242.842 26.3224L243.479 24.4898H242.204L242.841 26.3224H242.842ZM241.621 22.8238H244.065L244.708 20.9913H240.978L241.621 22.8238ZM240.393 19.3253H245.293L245.936 17.4927H239.749L240.392 19.3253H240.393ZM239.164 15.8267H246.521L247.164 13.9942H238.521L239.164 15.8267ZM231.847 8.82965H241.748L241.11 6.99708H231.845V8.82965H231.847ZM245.153 5.33111H257.503V3.49854H245.791L245.153 5.33111ZM247.007 0L246.371 1.83257H257.503V0H247.007ZM228.182 26.3224H237.345V24.4898H228.182V26.3224ZM228.182 22.8238H237.345V20.9913H228.182V22.8238ZM231.847 19.3253H237.345V17.4927H231.847V19.3253ZM231.847 15.8267H237.345V13.9942H231.847V15.8267ZM253.838 6.99708H244.573L243.935 8.82965H253.836V6.99708H253.838ZM248.34 12.3282H253.838V10.4956H243.357L242.842 11.9767L242.327 10.4956H231.847V12.3282H237.345V10.6439L237.936 12.3282H247.749L248.34 10.6439V12.3282ZM253.838 13.9942H248.34V15.8267H253.838V13.9942ZM248.34 19.3253H253.838V17.4927H248.34V19.3253ZM248.34 22.8238H257.503V20.9913H248.34V22.8238ZM248.34 26.3224H257.503V24.4898H248.34V26.3224ZM240.532 5.33111L239.893 3.49854H228.182V5.33111H240.532ZM239.315 1.83257L238.677 0H228.182V1.83257H239.315ZM259.477 24.9546C259.477 24.1366 260.1 23.5135 260.876 23.5135C261.653 23.5135 262.276 24.1366 262.276 24.9546C262.276 25.7726 261.653 26.3957 260.876 26.3957C260.1 26.3957 259.477 25.7726 259.477 24.9546ZM261.948 25.0462V24.8646C261.948 24.2766 261.486 23.8151 260.876 23.8151C260.267 23.8151 259.805 24.2766 259.805 24.8646V25.0462C259.805 25.6343 260.267 26.0958 260.876 26.0958C261.486 26.0958 261.948 25.6343 261.948 25.0462ZM260.666 25.6976H260.31V24.2349H260.975C261.303 24.2349 261.471 24.4315 261.471 24.6964C261.471 24.9279 261.366 25.0746 261.205 25.1379L261.533 25.6976H261.141L260.868 25.1945H260.665V25.6976H260.666ZM260.933 24.9279C261.045 24.9279 261.108 24.8796 261.108 24.7747V24.6697C261.108 24.5648 261.045 24.5165 260.933 24.5165H260.666V24.9296H260.933V24.9279Z" fill="white"/>
</g>
<defs>
<clipPath id="clip0_102_31">
<rect width="167.122" height="28" fill="white" transform="translate(0 6)"/>
</clipPath>
<clipPath id="clip1_102_31">
<rect width="71.6667" height="40" fill="white" transform="translate(191.122)"/>
</clipPath>
</defs>
</svg>
