<svg width="134" height="25" viewBox="0 0 134 25" fill="none" xmlns="http://www.w3.org/2000/svg">
<g clip-path="url(#clip0_102_69)">
<path d="M22.2541 9.62926V22.517H15.6021V11.053C15.6021 8.5836 14.1377 6.91101 12.0033 6.91101C9.36638 6.91101 7.65312 8.71042 7.65312 12.7686V22.517H0.958008V1.51042H7.65312V3.51799C9.24196 1.84541 11.4601 0.881104 14.097 0.881104C18.9927 0.881104 22.2565 4.35309 22.2565 9.62447L22.2541 9.62926Z" fill="black"/>
<path d="M31.1796 13.4147C31.7227 15.9248 33.4384 17.473 35.6972 17.473C37.2454 17.473 39.0448 17.0973 40.1742 15.0466L46.1156 16.2598C44.3162 20.6961 40.5092 22.8281 35.6972 22.8281C29.6314 22.8281 24.6089 18.3511 24.6089 11.6991C24.6089 5.04704 29.6314 0.570068 35.7403 0.570068C41.8492 0.570068 46.4506 4.83647 46.5774 11.6991V13.4147H31.1796ZM31.304 9.31344H39.966C39.3391 7.05461 37.6641 6.00895 35.7403 6.00895C33.8165 6.00895 31.9333 7.18143 31.304 9.31344Z" fill="black"/>
<path d="M84.8362 9.44026L79.8998 8.43527C78.5622 8.14335 78.311 7.55711 78.311 6.97087C78.311 6.21713 78.8972 5.33896 80.6966 5.33896C82.7473 5.33896 84.0011 6.51144 84.2117 7.80835L90.3205 6.59519C89.4831 2.95571 86.0111 0.570068 80.7804 0.570068C75.5497 0.570068 71.7427 3.37206 71.7427 7.68393C71.7427 10.9884 73.9608 13.0821 77.8516 13.7928L82.118 14.6303C83.6661 14.9222 84.2093 15.4678 84.2093 16.1784C84.2093 17.0997 83.2474 17.851 81.4886 17.851C79.7299 17.851 78.0573 17.181 77.7654 15.3816L71.2378 16.7216C71.9485 21.0311 76.1742 22.8305 81.113 22.8305C86.6356 22.8305 90.6531 20.4042 90.6531 15.7597C90.6531 12.6634 88.8131 10.2777 84.8386 9.44265L84.8362 9.44026Z" fill="black"/>
<path d="M127.227 9.44026L122.291 8.43527C120.953 8.14335 120.702 7.55711 120.702 6.97087C120.702 6.21713 121.288 5.33896 123.088 5.33896C125.138 5.33896 126.392 6.51144 126.603 7.80835L132.712 6.59519C131.874 2.95571 128.402 0.570068 123.171 0.570068C117.941 0.570068 114.134 3.37206 114.134 7.68393C114.134 10.9884 116.352 13.0821 120.243 13.7928L124.509 14.6303C126.057 14.9222 126.6 15.4678 126.6 16.1784C126.6 17.0997 125.638 17.851 123.88 17.851C122.121 17.851 120.448 17.181 120.157 15.3816L113.629 16.7216C114.34 21.0311 118.565 22.8305 123.504 22.8305C129.027 22.8305 133.044 20.4042 133.044 15.7597C133.044 12.6634 131.204 10.2777 127.23 9.44265L127.227 9.44026Z" fill="black"/>
<path d="M103.146 10.7012L99.1808 0.754272H91.8994C91.8994 0.754272 99.0228 17.3461 99.0252 17.3461C99.0707 17.3341 99.444 17.2288 99.5493 17.1882C100.305 16.8843 101.021 16.4296 101.504 15.762C102.545 14.3287 102.859 12.4982 103.131 10.7874C103.134 10.7706 103.141 10.7323 103.146 10.7036V10.7012Z" fill="black"/>
<path d="M57.8017 4.87473L55.1888 0.821289H47.6035L53.2362 9.46895C53.2362 9.46895 54.6049 7.85618 55.6865 6.84163C56.8685 5.73136 57.8041 4.87473 57.8041 4.87473H57.8017Z" fill="black"/>
<path d="M62.4509 11.9838L69.895 22.5146H62.0824L58.2061 16.6474C58.2061 16.6474 59.168 15.3529 60.2112 14.2307C61.2186 13.1444 62.4509 11.9814 62.4509 11.9814V11.9838Z" fill="black"/>
<path d="M67.0621 0.747145L62.1568 0.761502L63.078 2.34555C57.1965 5.75771 53.2651 10.6702 51.1283 13.9124C49.8027 15.7119 48.6374 17.6572 47.6731 19.672C47.2352 20.5884 46.8499 21.5192 46.5054 22.4644H53.5187C57.2085 14.5011 63.6978 9.43309 66.1983 7.71265L67.086 9.24166L69.5243 4.98722L71.9626 0.732788L67.0573 0.747145H67.0621Z" fill="#E4383F"/>
<path d="M105.938 0.754272C105.307 4.80053 104.677 8.0117 103.974 11.5698C102.684 18.9613 99.6309 18.6645 92.6128 18.5329L92.6678 24.5293C103.258 24.8787 107.968 23.2516 110.217 13.8645C111.016 10.5313 111.44 7.05457 112.112 3.69026C112.315 2.6781 112.483 1.7114 112.693 0.754272H105.938Z" fill="black"/>
</g>
<defs>
<clipPath id="clip0_102_69">
<rect width="132.084" height="24" fill="white" transform="translate(0.958008 0.570068)"/>
</clipPath>
</defs>
</svg>
